<svg width="51" height="51" viewBox="0 0 51 51" fill="none" xmlns="http://www.w3.org/2000/svg">
<g id="Pixel/Brand/Github">
<path id="Vector" d="M48.875 19.125V31.875H46.75V36.125H44.625V40.375H42.5V42.5H40.375V44.625H38.25V46.75H34V48.875H31.875V38.25H29.75V36.125H31.875V34H36.125V31.875H38.25V29.75H40.375V19.125H38.25V12.75H34V14.875H31.875V17H29.75V14.875H21.25V17H19.125V14.875H17V12.75H12.75V19.125H10.625V29.75H12.75V31.875H14.875V34H19.125V38.25H14.875V36.125H12.75V34H8.5V36.125H10.625V40.375H12.75V42.5H19.125V48.875H17V46.75H12.75V44.625H10.625V42.5H8.5V40.375H6.375V36.125H4.25V31.875H2.125V19.125H4.25V14.875H6.375V10.625H8.5V8.5H10.625V6.375H14.875V4.25H19.125V2.125H31.875V4.25H36.125V6.375H40.375V8.5H42.5V10.625H44.625V14.875H46.75V19.125H48.875Z" fill="#292929"/>
</g>
</svg>
