<svg width="47" height="47" viewBox="0 0 47 47" fill="none" xmlns="http://www.w3.org/2000/svg">
<path id="Vector" d="M44.75 17.125V12.875H42.625V8.625H40.5V6.5H38.375V4.375H34.125V2.25H29.875V0.125H17.125V2.25H12.875V4.375H8.625V6.5H6.5V8.625H4.375V12.875H2.25V17.125H0.125V29.875H2.25V34.125H4.375V38.375H6.5V40.5H8.625V42.625H12.875V44.75H17.125V46.875H29.875V44.75H34.125V42.625H38.375V40.5H40.5V38.375H42.625V34.125H44.75V29.875H46.875V17.125H44.75ZM21.375 10.75H25.625V15H21.375V10.75ZM19.25 29.875H21.375V19.25H19.25V17.125H25.625V29.875H27.75V34.125H19.25V29.875Z" fill="#292929"/>
</svg>
